# xmcd
#
# Track frame offsets:
# 150
# 16620
# 33665
# 52970
# 79052
# 98886
# 104187
# 122370
# 140220
# 163781
# 179711
# 212127
#
# Disc length: 4440 seconds
#
# Revision: 1
# Processed by: cddbd v1.5.2PL0 Copyright (c) Steve Scherf et al.
# Submitted via: CedeCatalogueitor 2.6.0.6 http://personales.ya.com/cdcatalogueitor
#
DISCID=a911560c
DTITLE=The Divine Comedy - Victory For The Comic Muse
DYEAR=1900
DGENRE=
TTITLE0=To Die A Virgin
TTITLE1=Mother Dear
TTITLE2=Diva Lady
TTITLE3=A Lady Of A Certain Age
TTITLE4=The Light Of Day
TTITLE5=Threesome
TTITLE6=Party Fears Two
TTITLE7=Arthur C. Clarke's  Mysterious World
TTITLE8=The Plough
TTITLE9=Count Grassi's Passage Over Piedmont
TTITLE10=Snowball In Negative
TTITLE11=
EXTD=
EXTT0=
EXTT1=
EXTT2=
EXTT3=
EXTT4=
EXTT5=
EXTT6=
EXTT7=
EXTT8=
EXTT9=
EXTT10=
EXTT11=
PLAYORDER=
